<?xml version="1.0" encoding="UTF-8" standalone="no"?>
<!-- Created with Inkscape (http://www.inkscape.org/) -->

<svg
   xmlns:dc="http://purl.org/dc/elements/1.1/"
   xmlns:cc="http://creativecommons.org/ns#"
   xmlns:rdf="http://www.w3.org/1999/02/22-rdf-syntax-ns#"
   xmlns:svg="http://www.w3.org/2000/svg"
   xmlns="http://www.w3.org/2000/svg"
   xmlns:xlink="http://www.w3.org/1999/xlink"
   xmlns:sodipodi="http://sodipodi.sourceforge.net/DTD/sodipodi-0.dtd"
   xmlns:inkscape="http://www.inkscape.org/namespaces/inkscape"
   width="210mm"
   height="297mm"
   id="svg3092"
   version="1.1"
   inkscape:version="0.48.3.1 r9886"
   sodipodi:docname="Nuevo documento 3">
  <defs
     id="defs3094">
    <linearGradient
       inkscape:collect="always"
       id="linearGradient3450">
      <stop
         style="stop-color:#74acdf;stop-opacity:1;"
         offset="0"
         id="stop3452" />
      <stop
         style="stop-color:#74acdf;stop-opacity:0;"
         offset="1"
         id="stop3454" />
    </linearGradient>
    <linearGradient
       inkscape:collect="always"
       xlink:href="#linearGradient5571"
       id="linearGradient4715"
       gradientUnits="userSpaceOnUse"
       gradientTransform="matrix(1.90693,0,0,1.90693,64.2881,-1075.33)"
       x1="287.26981"
       y1="678.03345"
       x2="286.95731"
       y2="715.93921" />
    <linearGradient
       id="linearGradient5571">
      <stop
         style="stop-color: rgb(255, 255, 255); stop-opacity: 0;"
         offset="0"
         id="stop5573" />
      <stop
         style="stop-color: rgb(237, 237, 237); stop-opacity: 1;"
         offset="1"
         id="stop5575" />
    </linearGradient>
    <linearGradient
       inkscape:collect="always"
       xlink:href="#linearGradient3450"
       id="linearGradient3456"
       x1="240.41631"
       y1="752.34686"
       x2="248.49753"
       y2="462.43314"
       gradientUnits="userSpaceOnUse" />
    <linearGradient
       inkscape:collect="always"
       xlink:href="#linearGradient3450"
       id="linearGradient3466"
       gradientUnits="userSpaceOnUse"
       x1="240.41631"
       y1="752.34686"
       x2="248.49753"
       y2="462.43314" />
    <linearGradient
       inkscape:collect="always"
       xlink:href="#linearGradient3450"
       id="linearGradient3491"
       gradientUnits="userSpaceOnUse"
       x1="240.41631"
       y1="752.34686"
       x2="248.49753"
       y2="462.43314" />
  </defs>
  <sodipodi:namedview
     id="base"
     pagecolor="#ffffff"
     bordercolor="#666666"
     borderopacity="1.0"
     inkscape:pageopacity="0.0"
     inkscape:pageshadow="2"
     inkscape:zoom="0.98994949"
     inkscape:cx="209.58749"
     inkscape:cy="390.18048"
     inkscape:document-units="px"
     inkscape:current-layer="layer1"
     showgrid="false"
     inkscape:window-width="1364"
     inkscape:window-height="745"
     inkscape:window-x="0"
     inkscape:window-y="21"
     inkscape:window-maximized="0" />
  <metadata
     id="metadata3097">
    <rdf:RDF>
      <cc:Work
         rdf:about="">
        <dc:format>image/svg+xml</dc:format>
        <dc:type
           rdf:resource="http://purl.org/dc/dcmitype/StillImage" />
        <dc:title></dc:title>
      </cc:Work>
    </rdf:RDF>
  </metadata>
  <g
     inkscape:label="Capa 1"
     inkscape:groupmode="layer"
     id="layer1">
    <g
       id="g3468"
       transform="translate(263.64981,-76.771593)">
      <g
         transform="translate(-162.63456,45.456865)"
         inkscape:export-ydpi="90"
         inkscape:export-xdpi="90"
         inkscape:export-filename="/home/german/Proyectos/minimal-mistakes/images/bio-photo.png"
         id="g3458">
        <path
           style="font-size:108.87200165px;font-style:normal;font-variant:normal;font-weight:normal;font-stretch:normal;text-align:start;line-height:125%;text-anchor:start;fill:url(#linearGradient3491);fill-opacity:1;stroke:none;font-family:Kimberley"
           d="m 268.494,588.99797 0,0.77479 c -2e-5,12.06094 6.71231,18.11582 20.08233,18.11582 l 23.24069,0 0,-18.29469 c -13.98364,-0.39169 -28.21169,-0.59592 -42.60793,-0.59592 -0.24008,0 -0.47511,-1.9e-4 -0.71509,0 z m -29.55739,0.29806 c -11.6806,0.22635 -23.20449,0.59172 -34.56307,1.07264 l 4.8865,12.45453 -12.51422,34.92062 24.73048,0 18.77132,-48.44779 c -0.43508,0.008 -0.87634,-0.009 -1.31101,0 z m 80.32935,0.53622 c 0.21134,12.02853 6.67228,18.05633 19.54601,18.05633 l 36.05286,0 c 10.58176,0.0788 16.6551,-4.50646 18.2946,-13.70605 -23.65905,-2.03813 -48.38367,-3.5078 -73.89347,-4.35028 z m -166.08153,3.63518 c -8.25204,0.65198 -16.37733,1.35964 -24.37292,2.1453 l 0,12.27585 24.37292,0 0,-14.42115 z m 248.97331,1.54938 0,12.87177 24.43252,0 0,-10.36893 c -7.99748,-0.90827 -16.14924,-1.73053 -24.43252,-2.50284 z M 98.0027,599.00935 c -8.22056,1.02745 -16.27018,2.10868 -24.13458,3.27762 l 0,5.60161 24.13458,0 0,-8.87923 z m 354.50987,1.72824 0,7.15099 24.13456,0 0,-3.516 c -7.84356,-1.27116 -15.90205,-2.50513 -24.13456,-3.63499 z"
           id="path3913"
           sodipodi:nodetypes="cccccsccccccccccccccccccccccccccccccccc"
           inkscape:connector-curvature="0" />
        <path
           style="font-size:108.87200165px;font-style:normal;font-variant:normal;font-weight:normal;font-stretch:normal;text-align:start;line-height:125%;text-anchor:start;fill:#74acdf;fill-opacity:1;stroke:none;font-family:Kimberley"
           d="m 49.06716,501.26625 0,26.81618 24.79007,0 0,74.19142 c 7.8644,-1.16894 15.914,-2.25008 24.13456,-3.27753 l 0,-70.91389 24.13456,0 0,-26.81618 -73.05919,0 z m 219.41593,0.17878 0,87.53992 c 0.23999,-1.9e-4 0.47502,0 0.7151,0 14.39624,0 28.62429,0.20423 42.60792,0.59591 l 0,-5.95915 -15.3746,0 c -2.43096,0 -3.69474,-1.58866 -3.69468,-4.76732 l 0,-28.90188 19.24806,0 0,-24.25374 -19.24806,0 0,-24.25374 -24.25374,0 z m -89.68522,24.07496 25.56476,64.83556 c 11.35858,-0.48092 22.88247,-0.84631 34.56307,-1.07264 0.43467,-0.009 0.87593,0.008 1.31102,0 l 24.67088,-63.76292 -25.68394,0 -17.5199,46.71975 -17.22195,-46.71975 -25.68394,0 z m 159.58606,0 c -12.80905,2e-5 -19.18847,6.46478 -19.18847,19.36724 l 0,44.33608 c 0,0.97151 0.0396,1.9052 0.11918,2.80081 -0.0621,-0.7049 -0.0464,-1.4531 -0.0596,-2.20489 25.5098,0.84248 50.23442,2.31204 73.89347,4.35018 0.30162,-1.69246 0.47673,-3.5372 0.47673,-5.54201 l 0,-43.62098 c -7e-5,-12.99587 -6.35383,-19.48643 -19.06928,-19.48643 l -36.17204,0 z m 54.76459,68.64942 c -0.10246,0.57498 -0.22042,1.12964 -0.35755,1.66856 0.13581,-0.53453 0.25597,-1.09856 0.35755,-1.66856 z m -73.83388,-2.14529 c 0.18906,2.12782 0.61272,4.02142 1.25143,5.72078 -0.62744,-1.69246 -1.0652,-3.6061 -1.25143,-5.72078 z m 1.25143,5.72078 c 0.21022,0.55928 0.45611,1.09608 0.71509,1.60897 -0.25833,-0.51722 -0.50594,-1.04482 -0.71509,-1.60897 z M 148.16784,525.69877 c -2.80494,4e-5 -5.43519,0.52097 -7.86608,1.54938 -2.33746,0.93519 -4.4211,2.27573 -6.19752,4.05222 -1.68296,1.6829 -2.99807,3.68123 -3.93304,6.01874 -0.93496,2.33753 -1.3706,4.8826 -1.3706,7.68731 l 0,50.59319 c 7.9956,-0.78566 16.12087,-1.49334 24.37293,-2.1453 l 0,-37.60224 c -2e-5,-3.92652 1.83602,-5.89956 5.48241,-5.89956 l 16.68563,0 0,-24.25374 -27.17373,0 z m 273.34624,0 c -2.80492,4e-5 -5.43515,0.52097 -7.86608,1.54938 -2.33742,0.93519 -4.36151,2.27573 -6.13793,4.05222 -1.68296,1.6829 -2.99805,3.68123 -3.93304,6.01874 -0.93498,2.33753 -1.43021,4.8826 -1.43019,7.68731 l 0,49.99727 c 8.28327,0.77231 16.43503,1.59455 24.43251,2.50284 l 0,-41.65446 c -10e-6,-3.92652 1.83603,-5.89956 5.48242,-5.89956 l 14.12319,0 c 4.20729,2e-5 6.31666,2.02413 6.3167,6.13793 l 0,44.63404 c 8.23251,1.12985 16.291,2.36392 24.13456,3.63508 l 0,-59.35314 c -10e-5,-2.6178 -0.49531,-5.05184 -1.4302,-7.38935 -0.84154,-2.43072 -2.0714,-4.51427 -3.75426,-6.19752 -1.58952,-1.77626 -3.58791,-3.14261 -6.01874,-4.1714 -2.33748,-1.02837 -4.99345,-1.54938 -7.98527,-1.54938 l -35.93367,0 z m -61.85599,9.35587 c 0.38467,0.013 0.81731,0.0923 1.25142,0.23836 3.50147,1.1766 5.76989,5.90147 3.5755,7.44894 -0.9737,0.68653 -1.2864,2.73196 -1.72816,11.02443 -0.56639,10.63303 -0.11796,13.4673 2.26448,14.89787 2.11741,1.27114 2.80644,0.96892 7.27016,-2.62202 4.73635,-3.80966 6.72795,-6.23528 6.85303,-8.58118 0.1163,-2.18208 1.56877,-3.38642 3.87344,-3.15835 1.46908,0.14592 2.09883,0.66621 2.91999,2.20489 1.67666,3.14204 1.18471,5.15109 -1.37061,5.66119 -2.08231,0.41535 -5.64067,5.00464 -11.14361,14.36155 -5.8107,9.88016 -7.0747,10.88589 -13.58686,10.96484 -2.67706,0.0318 -6.43829,-0.8666 -15.25543,-3.63508 -6.42982,-2.01944 -12.50683,-3.74969 -13.52727,-3.87345 -3.68703,-0.44548 -5.54718,-6.26616 -2.50284,-7.86608 1.55094,-0.81466 4.46671,0.49618 5.78037,2.62203 1.17789,1.90576 7.12225,3.66836 9.23669,2.74121 1.41093,-0.61844 1.79644,-1.383 1.90692,-4.11182 0.20792,-5.13192 -0.96522,-9.17461 -4.70772,-16.32807 -1.87818,-3.59013 -3.82315,-7.55868 -4.35018,-8.81954 -0.52719,-1.2614 -1.94854,-3.48615 -3.15835,-4.9461 -2.5747,-3.10522 -2.64936,-3.9195 -0.53633,-5.72078 3.16398,-2.69714 8.48351,1.62013 7.32976,5.95915 -0.56779,2.13559 0.50167,5.30059 4.11181,11.85871 4.28374,7.78238 8.66987,10.8935 11.2628,8.10444 0.66986,-0.72022 1.49819,-4.74369 2.26447,-10.96483 1.15272,-9.35669 1.1503,-9.91794 -0.11918,-11.79912 -1.92028,-2.84586 -0.60694,-5.75273 2.0857,-5.66119 z m -37.54265,65.78902 c 0.61369,0.92928 1.3377,1.75786 2.1453,2.50284 -0.81271,-0.75263 -1.5301,-1.56233 -2.1453,-2.50284 z m 67.27881,1.72815 c -0.29212,0.33656 -0.57095,0.64887 -0.89387,0.95347 0.31915,-0.30134 0.6048,-0.62094 0.89387,-0.95347 z m -2.44325,2.20489 c -0.27301,0.19176 -0.54423,0.36222 -0.83428,0.53632 0.28701,-0.17107 0.56382,-0.34809 0.83428,-0.53632 z"
           id="path3915"
           inkscape:connector-curvature="0" />
      </g>
    </g>
    <rect
       y="274.07785"
       width="800"
       height="166.67"
       id="rect3220"
       x="-1075.8608"
       style="fill:#ffffff" />
    <g
       id="rays"
       transform="translate(-1075.8609,107.40784)">
      <path
         id="ray1"
         d="m 396.84,251.31 28.454,61.992 c 0,0 0.4896,1.185 1.28,0.8586 0.7902,-0.3267 0.2988,-1.5116 0.2988,-1.5116 l -23.715,-63.956 m -0.68,24.12 c -0.3465,9.4278 5.4526,14.613 4.6943,23.032 -0.7569,8.42 3.8673,13.18 4.9396,16.454 1.0733,3.2744 -1.16,5.2323 -0.198,5.6982 0.96336,0.4662 3.07,-2.1207 2.3833,-6.7756 -0.68675,-4.6549 -4.2204,-6.0368 -3.3898,-16.32 0.83,-10.283 -4.206,-12.678 -2.98,-22.058"
         inkscape:connector-curvature="0"
         style="fill:#f6b40e;stroke:#85340a;stroke-width:1.11160004" />
      <use
         xlink:href="#ray1"
         transform="matrix(0.92387953,0.38268343,-0.38268343,0.92387953,126.11905,-134.04326)"
         id="use3224"
         x="0"
         y="0"
         width="744.09448"
         height="1052.3622" />
      <use
         xlink:href="#ray1"
         transform="matrix(0.70710678,0.70710678,-0.70710678,0.70710678,293.93398,-209.61941)"
         id="use3226"
         x="0"
         y="0"
         width="744.09448"
         height="1052.3622" />
      <use
         xlink:href="#ray1"
         transform="matrix(0.38268343,0.92387953,-0.92387953,0.38268343,477.89651,-215.22267)"
         id="use3228"
         x="0"
         y="0"
         width="744.09448"
         height="1052.3622" />
      <path
         id="ray2"
         d="m 404.31,274.41 c 0.45334,9.0538 5.5867,13.063 4.5787,21.314 2.2133,-6.5249 -3.1233,-11.583 -2.82,-21.22 m -7.6487,-23.757 19.487,42.577 -16.329,-43.887"
         inkscape:connector-curvature="0"
         style="fill:#85340a" />
      <use
         xlink:href="#ray2"
         transform="matrix(0.92387953,0.38268343,-0.38268343,0.92387953,126.11905,-134.04326)"
         id="use3231"
         x="0"
         y="0"
         width="744.09448"
         height="1052.3622" />
      <use
         xlink:href="#ray2"
         transform="matrix(0.70710678,0.70710678,-0.70710678,0.70710678,293.93398,-209.61941)"
         id="use3233"
         x="0"
         y="0"
         width="744.09448"
         height="1052.3622" />
      <use
         xlink:href="#ray2"
         transform="matrix(0.38268343,0.92387953,-0.92387953,0.38268343,477.89651,-215.22267)"
         id="use3235"
         x="0"
         y="0"
         width="744.09448"
         height="1052.3622" />
    </g>
    <use
       xlink:href="#rays"
       transform="matrix(0,1,-1,0,-318.45306,1033.2687)"
       id="use3237"
       x="0"
       y="0"
       width="744.09448"
       height="1052.3622" />
    <use
       xlink:href="#rays"
       transform="matrix(-1,0,0,-1,-1351.7218,714.81568)"
       id="use3239"
       x="0"
       y="0"
       width="744.09448"
       height="1052.3622" />
    <use
       xlink:href="#rays"
       transform="matrix(0,-1,1,0,-1033.2687,-318.45306)"
       id="use3241"
       x="0"
       y="0"
       width="744.09448"
       height="1052.3622" />
    <circle
       d="m 427.778,250 c 0,15.34137 -12.43663,27.778 -27.778,27.778 -15.34137,0 -27.778,-12.43663 -27.778,-27.778 0,-15.34137 12.43663,-27.778 27.778,-27.778 15.34137,0 27.778,12.43663 27.778,27.778 z"
       r="27.778"
       cy="250"
       cx="400"
       id="circle3243"
       sodipodi:cx="400"
       sodipodi:cy="250"
       sodipodi:rx="27.778"
       sodipodi:ry="27.778"
       style="fill:#f6b40e;stroke:#85340a;stroke-width:1.5"
       transform="translate(-1075.8609,107.40784)" />
    <path
       id="loweyecontour"
       d="m -666.3909,351.46784 c -1.8967,3e-5 -3.7131,0.82183 -4.7812,2.5312 2.1367,1.9227 6.8565,2.1318 10.062,-0.21875 -1.3883,-1.4954 -3.3845,-2.3125 -5.2812,-2.3125 z m -0.0312,0.4375 c 1.8462,-0.0335 3.5717,0.81446 3.8125,1.6562 -2.1367,2.3504 -5.5508,2.1463 -7.6875,0.4375 0.9348,-1.4957 2.4391,-2.0677 3.875,-2.0938 z"
       inkscape:connector-curvature="0"
       style="fill:#843511" />
    <use
       xlink:href="#uppalpebra"
       transform="matrix(-1,0,0,1,-1351.4718,0)"
       id="use3246"
       x="0"
       y="0"
       width="744.09448"
       height="1052.3622" />
    <use
       xlink:href="#eyebrow_nose"
       transform="matrix(-1,0,0,1,-1351.4718,0)"
       id="use3248"
       x="0"
       y="0"
       width="744.09448"
       height="1052.3622" />
    <use
       xlink:href="#pupil"
       transform="translate(18.862,0)"
       id="use3250"
       x="0"
       y="0"
       width="744.09448"
       height="1052.3622" />
    <use
       xlink:href="#lowpalpebra"
       transform="matrix(-1,0,0,1,-1351.4718,0)"
       id="use3252"
       x="0"
       y="0"
       width="744.09448"
       height="1052.3622" />
    <path
       d="m -680.1109,361.24784 c -0.91341,0.16668 -1.5625,0.97727 -1.5625,1.9062 0,1.0614 0.87748,1.9062 1.9375,1.9062 0.62667,0 1.2025,-0.2968 1.5625,-0.8125 0.73952,0.55614 1.7646,0.61511 2.3125,0.625 0.0843,0.002 0.19312,0 0.25,0 0.54791,-0.01 1.573,-0.0689 2.3125,-0.625 0.36,0.5157 0.93583,0.8125 1.5625,0.8125 1.06,0 1.9375,-0.84488 1.9375,-1.9062 0,-0.92898 -0.64918,-1.7396 -1.5625,-1.9062 0.513,0.1809 0.84375,0.6765 0.84375,1.2188 0,0.7074 -0.57124,1.2812 -1.2812,1.2812 -0.6804,0 -1.2413,-0.54015 -1.2812,-1.2188 -0.20862,0.41637 -1.0341,1.6551 -2.6562,1.7188 -1.6222,-0.0636 -2.4476,-1.3024 -2.6562,-1.7188 -0.04,0.6786 -0.60085,1.2188 -1.2812,1.2188 -0.71001,0 -1.2812,-0.57385 -1.2812,-1.2812 0,-0.54225 0.33075,-1.0378 0.84375,-1.2188 z"
       id="path3254"
       inkscape:connector-curvature="0"
       style="fill:#85340a" />
    <path
       d="m -678.0209,366.93784 c -2.138,0 -2.9829,1.9368 -4.9062,3.2188 1.0687,-0.42633 1.9096,-1.2693 3.4062,-2.125 1.496,-0.85442 2.7717,0.1875 3.625,0.1875 h 0.0312 c 0.8532,0 2.129,-1.0416 3.625,-0.1875 1.4967,0.8559 2.3688,1.6987 3.4375,2.125 -1.9233,-1.282 -2.7996,-3.2188 -4.9375,-3.2188 -0.4266,0 -1.2716,0.23055 -2.125,0.65625 h -0.0312 c -0.85334,-0.42642 -1.6983,-0.65625 -2.125,-0.65625 z"
       id="path3256"
       inkscape:connector-curvature="0"
       style="fill:#85340a" />
    <path
       d="m -678.7409,369.46784 c -0.8439,0.0374 -1.9596,0.20675 -3.5625,0.6875 3.8473,-0.85434 4.6962,0.4375 6.4062,0.4375 h 0.0312 c 1.71,0 2.5588,-1.292 6.4062,-0.4375 -4.2744,-1.282 -5.1242,-0.4375 -6.4062,-0.4375 h -0.0312 c -0.80125,0 -1.4372,-0.3124 -2.8438,-0.25 z"
       id="path3258"
       inkscape:connector-curvature="0"
       style="fill:#85340a" />
    <path
       d="m -682.1109,370.12784 c -0.24819,0.003 -0.51871,0.005 -0.8125,0.0312 4.488,0.42766 2.3306,3 7.0312,3 h 0.0312 c 4.7007,0 2.5745,-2.5724 7.0625,-3 -4.7007,-0.4266 -3.2146,2.3438 -7.0625,2.3438 h -0.0312 c -3.6075,0 -2.4959,-2.4215 -6.2188,-2.375 z"
       id="path3260"
       inkscape:connector-curvature="0"
       style="fill:#85340a" />
    <path
       d="m -672.0109,377.06784 c 0,-2.1234 -1.7233,-3.8465 -3.8463,-3.8465 -2.1233,0 -3.8463,1.723 -3.8463,3.8465 0.423,-1.781 2.0166,-3.0393 3.8463,-3.0393 1.8333,0 3.424,1.2586 3.8463,3.0393 v 0 0 z"
       id="path3262"
       inkscape:connector-curvature="0"
       style="fill:#85340a" />
    <path
       id="eyebrow_nose"
       d="m -693.1309,351.42784 c 4.9146,-4.2729 11.11,-4.9147 14.53,-1.7086 0.837,1.1207 1.3733,2.319 1.5934,3.5696 0.4302,2.433 -0.3303,5.0617 -2.2367,7.7559 0.2151,-10e-4 0.6435,0.2124 0.8568,0.4266 1.6967,-3.244 2.2967,-6.5761 1.74,-9.7454 -0.1458,-0.828 -0.3735,-1.643 -0.6696,-2.4357 -4.7007,-3.8452 -11.11,-4.2729 -15.811,2.1377 z"
       inkscape:connector-curvature="0"
       style="fill:#85340a" />
    <path
       id="uppalpebra"
       d="m -685.4409,350.14784 c 2.7767,0 3.4186,0.6417 4.7007,1.71 1.2833,1.0683 1.9233,0.8541 2.1367,1.0683 0.2124,0.2142 0,0.8541 -0.4266,0.6399 -0.4266,-0.2142 -1.2833,-0.6399 -2.5633,-1.7086 -1.2833,-1.0696 -2.5633,-1.0683 -3.8463,-1.0683 -3.8463,0 -5.983,3.2046 -6.4094,2.9907 -0.4266,-0.2142 2.1367,-3.6325 6.4094,-3.6325 z"
       inkscape:connector-curvature="0"
       style="fill:#85340a" />
    <use
       xlink:href="#loweyecontour"
       transform="translate(-19.181,0)"
       id="use3266"
       x="0"
       y="0"
       width="744.09448"
       height="1052.3622" />
    <circle
       d="m 392.46301,246.14999 c 0,1.06205 -0.86096,1.923 -1.923,1.923 -1.06205,0 -1.923,-0.86095 -1.923,-1.923 0,-1.06204 0.86095,-1.923 1.923,-1.923 1.06204,0 1.923,0.86096 1.923,1.923 z"
       id="pupil"
       cy="246.14999"
       cx="390.54001"
       r="1.923"
       sodipodi:cx="390.54001"
       sodipodi:cy="246.14999"
       sodipodi:rx="1.923"
       sodipodi:ry="1.923"
       style="fill:#85340a"
       transform="translate(-1075.8609,107.40784)" />
    <path
       id="lowpalpebra"
       d="m -690.5709,354.84784 c 3.6327,2.7783 7.265,2.5644 9.4017,1.282 2.1367,-1.282 2.1367,-1.7086 1.71,-1.7086 -0.4266,0 -0.8532,0.4266 -2.5633,1.281 -1.71,0.8559 -4.273,0.8559 -8.546,-0.8541 z"
       inkscape:connector-curvature="0"
       style="fill:#85340a" />
  </g>
</svg>
