<?xml version="1.0" encoding="UTF-8" standalone="no"?>
<!-- Created with Inkscape (http://www.inkscape.org/) -->

<svg
   xmlns:dc="http://purl.org/dc/elements/1.1/"
   xmlns:cc="http://creativecommons.org/ns#"
   xmlns:rdf="http://www.w3.org/1999/02/22-rdf-syntax-ns#"
   xmlns:svg="http://www.w3.org/2000/svg"
   xmlns="http://www.w3.org/2000/svg"
   xmlns:xlink="http://www.w3.org/1999/xlink"
   xmlns:sodipodi="http://sodipodi.sourceforge.net/DTD/sodipodi-0.dtd"
   xmlns:inkscape="http://www.inkscape.org/namespaces/inkscape"
   width="210mm"
   height="297mm"
   id="svg3092"
   version="1.1"
   inkscape:version="0.48.3.1 r9886"
   sodipodi:docname="tryton-button.svg"
   inkscape:export-filename="/home/german/Proyectos/minimal-mistakes/images/bio-photo.png"
   inkscape:export-xdpi="90"
   inkscape:export-ydpi="90">
  <defs
     id="defs3094">
    <linearGradient
       inkscape:collect="always"
       id="linearGradient3450">
      <stop
         style="stop-color:#74acdf;stop-opacity:1;"
         offset="0"
         id="stop3452" />
      <stop
         style="stop-color:#74acdf;stop-opacity:0;"
         offset="1"
         id="stop3454" />
    </linearGradient>
    <linearGradient
       id="linearGradient5571">
      <stop
         style="stop-color: rgb(255, 255, 255); stop-opacity: 0;"
         offset="0"
         id="stop5573" />
      <stop
         style="stop-color: rgb(237, 237, 237); stop-opacity: 1;"
         offset="1"
         id="stop5575" />
    </linearGradient>
    <linearGradient
       inkscape:collect="always"
       xlink:href="#linearGradient3450"
       id="linearGradient3491"
       gradientUnits="userSpaceOnUse"
       x1="240.41631"
       y1="752.34686"
       x2="248.49753"
       y2="462.43314" />
    <linearGradient
       inkscape:collect="always"
       xlink:href="#linearGradient3450"
       id="linearGradient3645"
       gradientUnits="userSpaceOnUse"
       x1="240.41631"
       y1="752.34686"
       x2="248.49753"
       y2="462.43314" />
    <linearGradient
       inkscape:collect="always"
       xlink:href="#linearGradient3450"
       id="linearGradient3655"
       gradientUnits="userSpaceOnUse"
       x1="240.41631"
       y1="752.34686"
       x2="248.49753"
       y2="462.43314" />
    <linearGradient
       inkscape:collect="always"
       xlink:href="#linearGradient3450"
       id="linearGradient3660"
       gradientUnits="userSpaceOnUse"
       x1="240.41631"
       y1="752.34686"
       x2="248.49753"
       y2="462.43314" />
    <linearGradient
       inkscape:collect="always"
       xlink:href="#linearGradient3450"
       id="linearGradient3664"
       gradientUnits="userSpaceOnUse"
       x1="240.41631"
       y1="752.34686"
       x2="248.49753"
       y2="462.43314"
       gradientTransform="matrix(1.5273374,0,0,1.5273374,99.513084,-301.36997)" />
    <linearGradient
       inkscape:collect="always"
       xlink:href="#linearGradient3450"
       id="linearGradient4680"
       gradientUnits="userSpaceOnUse"
       gradientTransform="matrix(0.94199649,0,0,0.94199649,286.35124,6.2383682)"
       x1="355.70975"
       y1="578.99316"
       x2="354.95148"
       y2="618.80231" />
    <linearGradient
       inkscape:collect="always"
       xlink:href="#linearGradient3450"
       id="linearGradient6304"
       gradientUnits="userSpaceOnUse"
       gradientTransform="matrix(0.94199649,0,0,0.94199649,286.35124,6.2383682)"
       x1="355.70975"
       y1="578.99316"
       x2="354.95148"
       y2="618.80231" />
  </defs>
  <sodipodi:namedview
     id="base"
     pagecolor="#ffffff"
     bordercolor="#666666"
     borderopacity="1.0"
     inkscape:pageopacity="0.0"
     inkscape:pageshadow="2"
     inkscape:zoom="2.8"
     inkscape:cx="636.07156"
     inkscape:cy="515.82381"
     inkscape:document-units="px"
     inkscape:current-layer="layer1"
     showgrid="false"
     inkscape:window-width="1364"
     inkscape:window-height="745"
     inkscape:window-x="0"
     inkscape:window-y="21"
     inkscape:window-maximized="0" />
  <metadata
     id="metadata3097">
    <rdf:RDF>
      <cc:Work
         rdf:about="">
        <dc:format>image/svg+xml</dc:format>
        <dc:type
           rdf:resource="http://purl.org/dc/dcmitype/StillImage" />
        <dc:title></dc:title>
      </cc:Work>
    </rdf:RDF>
  </metadata>
  <g
     inkscape:label="Capa 1"
     inkscape:groupmode="layer"
     id="layer1">
    <g
       id="g6300"
       transform="matrix(0.71313838,0,0,0.71313838,168.39702,149.05972)"
       inkscape:export-filename="/home/german/Proyectos/minimal-mistakes/images/bio-photo.png"
       inkscape:export-xdpi="90"
       inkscape:export-ydpi="90">
      <path
         inkscape:export-ydpi="90"
         inkscape:export-xdpi="90"
         inkscape:export-filename="/home/german/Proyectos/minimal-mistakes/images/bio-photo.png"
         inkscape:connector-curvature="0"
         sodipodi:nodetypes="ccccc"
         id="path3913"
         d="m 587.09866,561.85829 c 0.19908,11.33083 6.28526,17.009 18.41228,17.009 l 33.96166,0 c 9.96799,0.0742 15.68905,-4.24507 17.23346,-12.91105 -22.28675,-1.91991 -45.57726,-3.30434 -69.6074,-4.09795 z"
         style="font-size:108.87200165px;font-style:normal;font-variant:normal;font-weight:normal;font-stretch:normal;text-align:start;line-height:125%;text-anchor:start;fill:url(#linearGradient6304);fill-opacity:1;stroke:none;font-family:Kimberley" />
      <path
         inkscape:export-ydpi="90"
         inkscape:export-xdpi="90"
         inkscape:export-filename="/home/german/Proyectos/minimal-mistakes/images/bio-photo.png"
         sodipodi:nodetypes="csscccsssccccccccccccccsccccccsccccccccccscccccccccccccc"
         inkscape:connector-curvature="0"
         id="path3915"
         d="m 605.10772,501.27637 c -12.06608,2e-5 -18.07547,6.0898 -18.07547,18.24388 l 0,41.76442 c 0,0.91516 0.0373,1.7947 0.11227,2.63836 -0.0585,-0.66402 -0.0437,-1.36882 -0.0561,-2.077 24.03013,0.79361 47.32064,2.17792 69.60739,4.09785 0.28412,-1.59429 0.44906,-3.33203 0.44906,-5.22056 l 0,-41.0908 c -5e-5,-12.24207 -5.98528,-18.35615 -17.96318,-18.35615 z m 51.58805,64.66751 c -0.0965,0.54163 -0.20763,1.06412 -0.33681,1.57178 0.12793,-0.50352 0.24113,-1.03485 0.33681,-1.57178 z m -69.55125,-2.02085 c 0.17809,2.0044 0.57718,3.78816 1.17884,5.38895 -0.59105,-1.59429 -1.00342,-3.39693 -1.17884,-5.38895 z m 1.17884,5.38895 c 0.19803,0.52684 0.42965,1.03251 0.67361,1.51564 -0.24334,-0.48722 -0.4766,-0.98421 -0.67361,-1.51564 z m 36.82455,-59.054 c 0.36236,0.0123 0.76989,0.0869 1.17883,0.22453 3.29837,1.10835 5.43521,5.55916 3.36811,7.01687 -0.91723,0.64671 -1.21179,2.57351 -1.62792,10.38498 -0.53354,10.01627 -0.11112,12.68615 2.13312,14.03374 1.9946,1.19741 2.64367,0.91272 6.84847,-2.46994 4.46162,-3.58868 6.33771,-5.87361 6.45553,-8.08344 0.10956,-2.05551 1.47778,-3.18999 3.64877,-2.97515 1.38387,0.13746 1.97709,0.62757 2.75062,2.077 1.57941,2.95979 1.11599,4.85231 -1.29111,5.33282 -1.96153,0.39126 -5.31349,4.71435 -10.49724,13.52853 -5.47367,9.30707 -6.66434,10.25447 -12.79877,10.32884 -2.52179,0.0299 -6.06485,-0.81633 -14.37057,-3.42423 -6.05687,-1.90231 -11.78138,-3.5322 -12.74264,-3.64878 -3.47317,-0.41964 -5.22542,-5.9027 -2.35766,-7.40982 1.46098,-0.7674 4.20762,0.4674 5.44508,2.46995 1.10957,1.79521 6.70914,3.45558 8.70094,2.5822 1.32908,-0.58256 1.69224,-1.30278 1.79631,-3.87332 0.19585,-4.83424 -0.90924,-8.64244 -4.43466,-15.38098 -1.76924,-3.38189 -3.6014,-7.12025 -4.09785,-8.30797 -0.49662,-1.18824 -1.83552,-3.28394 -2.97516,-4.65921 -2.42536,-2.92511 -2.49569,-3.69216 -0.50522,-5.38896 2.98046,-2.54069 7.99144,1.52616 6.90461,5.6135 -0.53486,2.01172 0.47257,4.99314 3.87331,11.17086 4.03527,7.33098 8.16698,10.26164 10.60952,7.63436 0.631,-0.67845 1.41129,-4.46854 2.13312,-10.32883 1.08586,-8.81398 1.08358,-9.34267 -0.11227,-11.11473 -1.80889,-2.6808 -0.57173,-5.41906 1.96473,-5.33282 z M 589.78286,572.231 c 0.57809,0.87538 1.26011,1.6559 2.02087,2.35767 -0.76557,-0.70898 -1.44136,-1.47171 -2.02087,-2.35767 z m 63.37641,1.62791 c -0.27519,0.31704 -0.53784,0.61124 -0.84203,0.89817 0.30063,-0.28386 0.56972,-0.58492 0.84203,-0.89817 z m -2.30154,2.077 c -0.25717,0.18064 -0.51266,0.34121 -0.78589,0.50521 0.27037,-0.16115 0.53111,-0.3279 0.78589,-0.50521 z"
         style="font-size:108.87200165px;font-style:normal;font-variant:normal;font-weight:normal;font-stretch:normal;text-align:start;line-height:125%;text-anchor:start;fill:#74acdf;fill-opacity:1;stroke:none;font-family:Kimberley" />
    </g>
    <rect
       y="274.07785"
       width="800"
       height="166.67"
       id="rect3220"
       x="-1075.8608"
       style="fill:#ffffff" />
    <g
       id="rays"
       transform="translate(-1075.8609,107.40784)">
      <path
         id="ray1"
         d="m 396.84,251.31 28.454,61.992 c 0,0 0.4896,1.185 1.28,0.8586 0.7902,-0.3267 0.2988,-1.5116 0.2988,-1.5116 l -23.715,-63.956 m -0.68,24.12 c -0.3465,9.4278 5.4526,14.613 4.6943,23.032 -0.7569,8.42 3.8673,13.18 4.9396,16.454 1.0733,3.2744 -1.16,5.2323 -0.198,5.6982 0.96336,0.4662 3.07,-2.1207 2.3833,-6.7756 -0.68675,-4.6549 -4.2204,-6.0368 -3.3898,-16.32 0.83,-10.283 -4.206,-12.678 -2.98,-22.058"
         inkscape:connector-curvature="0"
         style="fill:#f6b40e;stroke:#85340a;stroke-width:1.11160004" />
      <use
         xlink:href="#ray1"
         transform="matrix(0.92387953,0.38268343,-0.38268343,0.92387953,126.11905,-134.04326)"
         id="use3224"
         x="0"
         y="0"
         width="744.09448"
         height="1052.3622" />
      <use
         xlink:href="#ray1"
         transform="matrix(0.70710678,0.70710678,-0.70710678,0.70710678,293.93398,-209.61941)"
         id="use3226"
         x="0"
         y="0"
         width="744.09448"
         height="1052.3622" />
      <use
         xlink:href="#ray1"
         transform="matrix(0.38268343,0.92387953,-0.92387953,0.38268343,477.89651,-215.22267)"
         id="use3228"
         x="0"
         y="0"
         width="744.09448"
         height="1052.3622" />
      <path
         id="ray2"
         d="m 404.31,274.41 c 0.45334,9.0538 5.5867,13.063 4.5787,21.314 2.2133,-6.5249 -3.1233,-11.583 -2.82,-21.22 m -7.6487,-23.757 19.487,42.577 -16.329,-43.887"
         inkscape:connector-curvature="0"
         style="fill:#85340a" />
      <use
         xlink:href="#ray2"
         transform="matrix(0.92387953,0.38268343,-0.38268343,0.92387953,126.11905,-134.04326)"
         id="use3231"
         x="0"
         y="0"
         width="744.09448"
         height="1052.3622" />
      <use
         xlink:href="#ray2"
         transform="matrix(0.70710678,0.70710678,-0.70710678,0.70710678,293.93398,-209.61941)"
         id="use3233"
         x="0"
         y="0"
         width="744.09448"
         height="1052.3622" />
      <use
         xlink:href="#ray2"
         transform="matrix(0.38268343,0.92387953,-0.92387953,0.38268343,477.89651,-215.22267)"
         id="use3235"
         x="0"
         y="0"
         width="744.09448"
         height="1052.3622" />
    </g>
    <use
       xlink:href="#rays"
       transform="matrix(0,1,-1,0,-318.45306,1033.2687)"
       id="use3237"
       x="0"
       y="0"
       width="744.09448"
       height="1052.3622" />
    <use
       xlink:href="#rays"
       transform="matrix(-1,0,0,-1,-1351.7218,714.81568)"
       id="use3239"
       x="0"
       y="0"
       width="744.09448"
       height="1052.3622" />
    <use
       xlink:href="#rays"
       transform="matrix(0,-1,1,0,-1033.2687,-318.45306)"
       id="use3241"
       x="0"
       y="0"
       width="744.09448"
       height="1052.3622" />
    <circle
       d="m 427.778,250 c 0,15.34137 -12.43663,27.778 -27.778,27.778 -15.34137,0 -27.778,-12.43663 -27.778,-27.778 0,-15.34137 12.43663,-27.778 27.778,-27.778 15.34137,0 27.778,12.43663 27.778,27.778 z"
       r="27.778"
       cy="250"
       cx="400"
       id="circle3243"
       sodipodi:cx="400"
       sodipodi:cy="250"
       sodipodi:rx="27.778"
       sodipodi:ry="27.778"
       style="fill:#f6b40e;stroke:#85340a;stroke-width:1.5"
       transform="translate(-1075.8609,107.40784)" />
    <path
       id="loweyecontour"
       d="m -666.3909,351.46784 c -1.8967,3e-5 -3.7131,0.82183 -4.7812,2.5312 2.1367,1.9227 6.8565,2.1318 10.062,-0.21875 -1.3883,-1.4954 -3.3845,-2.3125 -5.2812,-2.3125 z m -0.0312,0.4375 c 1.8462,-0.0335 3.5717,0.81446 3.8125,1.6562 -2.1367,2.3504 -5.5508,2.1463 -7.6875,0.4375 0.9348,-1.4957 2.4391,-2.0677 3.875,-2.0938 z"
       inkscape:connector-curvature="0"
       style="fill:#843511" />
    <use
       xlink:href="#uppalpebra"
       transform="matrix(-1,0,0,1,-1351.4718,0)"
       id="use3246"
       x="0"
       y="0"
       width="744.09448"
       height="1052.3622" />
    <use
       xlink:href="#eyebrow_nose"
       transform="matrix(-1,0,0,1,-1351.4718,0)"
       id="use3248"
       x="0"
       y="0"
       width="744.09448"
       height="1052.3622" />
    <use
       xlink:href="#pupil"
       transform="translate(18.862,0)"
       id="use3250"
       x="0"
       y="0"
       width="744.09448"
       height="1052.3622" />
    <use
       xlink:href="#lowpalpebra"
       transform="matrix(-1,0,0,1,-1351.4718,0)"
       id="use3252"
       x="0"
       y="0"
       width="744.09448"
       height="1052.3622" />
    <path
       d="m -680.1109,361.24784 c -0.91341,0.16668 -1.5625,0.97727 -1.5625,1.9062 0,1.0614 0.87748,1.9062 1.9375,1.9062 0.62667,0 1.2025,-0.2968 1.5625,-0.8125 0.73952,0.55614 1.7646,0.61511 2.3125,0.625 0.0843,0.002 0.19312,0 0.25,0 0.54791,-0.01 1.573,-0.0689 2.3125,-0.625 0.36,0.5157 0.93583,0.8125 1.5625,0.8125 1.06,0 1.9375,-0.84488 1.9375,-1.9062 0,-0.92898 -0.64918,-1.7396 -1.5625,-1.9062 0.513,0.1809 0.84375,0.6765 0.84375,1.2188 0,0.7074 -0.57124,1.2812 -1.2812,1.2812 -0.6804,0 -1.2413,-0.54015 -1.2812,-1.2188 -0.20862,0.41637 -1.0341,1.6551 -2.6562,1.7188 -1.6222,-0.0636 -2.4476,-1.3024 -2.6562,-1.7188 -0.04,0.6786 -0.60085,1.2188 -1.2812,1.2188 -0.71001,0 -1.2812,-0.57385 -1.2812,-1.2812 0,-0.54225 0.33075,-1.0378 0.84375,-1.2188 z"
       id="path3254"
       inkscape:connector-curvature="0"
       style="fill:#85340a" />
    <path
       d="m -678.0209,366.93784 c -2.138,0 -2.9829,1.9368 -4.9062,3.2188 1.0687,-0.42633 1.9096,-1.2693 3.4062,-2.125 1.496,-0.85442 2.7717,0.1875 3.625,0.1875 h 0.0312 c 0.8532,0 2.129,-1.0416 3.625,-0.1875 1.4967,0.8559 2.3688,1.6987 3.4375,2.125 -1.9233,-1.282 -2.7996,-3.2188 -4.9375,-3.2188 -0.4266,0 -1.2716,0.23055 -2.125,0.65625 h -0.0312 c -0.85334,-0.42642 -1.6983,-0.65625 -2.125,-0.65625 z"
       id="path3256"
       inkscape:connector-curvature="0"
       style="fill:#85340a" />
    <path
       d="m -678.7409,369.46784 c -0.8439,0.0374 -1.9596,0.20675 -3.5625,0.6875 3.8473,-0.85434 4.6962,0.4375 6.4062,0.4375 h 0.0312 c 1.71,0 2.5588,-1.292 6.4062,-0.4375 -4.2744,-1.282 -5.1242,-0.4375 -6.4062,-0.4375 h -0.0312 c -0.80125,0 -1.4372,-0.3124 -2.8438,-0.25 z"
       id="path3258"
       inkscape:connector-curvature="0"
       style="fill:#85340a" />
    <path
       d="m -682.1109,370.12784 c -0.24819,0.003 -0.51871,0.005 -0.8125,0.0312 4.488,0.42766 2.3306,3 7.0312,3 h 0.0312 c 4.7007,0 2.5745,-2.5724 7.0625,-3 -4.7007,-0.4266 -3.2146,2.3438 -7.0625,2.3438 h -0.0312 c -3.6075,0 -2.4959,-2.4215 -6.2188,-2.375 z"
       id="path3260"
       inkscape:connector-curvature="0"
       style="fill:#85340a" />
    <path
       d="m -672.0109,377.06784 c 0,-2.1234 -1.7233,-3.8465 -3.8463,-3.8465 -2.1233,0 -3.8463,1.723 -3.8463,3.8465 0.423,-1.781 2.0166,-3.0393 3.8463,-3.0393 1.8333,0 3.424,1.2586 3.8463,3.0393 v 0 0 z"
       id="path3262"
       inkscape:connector-curvature="0"
       style="fill:#85340a" />
    <path
       id="eyebrow_nose"
       d="m -693.1309,351.42784 c 4.9146,-4.2729 11.11,-4.9147 14.53,-1.7086 0.837,1.1207 1.3733,2.319 1.5934,3.5696 0.4302,2.433 -0.3303,5.0617 -2.2367,7.7559 0.2151,-10e-4 0.6435,0.2124 0.8568,0.4266 1.6967,-3.244 2.2967,-6.5761 1.74,-9.7454 -0.1458,-0.828 -0.3735,-1.643 -0.6696,-2.4357 -4.7007,-3.8452 -11.11,-4.2729 -15.811,2.1377 z"
       inkscape:connector-curvature="0"
       style="fill:#85340a" />
    <path
       id="uppalpebra"
       d="m -685.4409,350.14784 c 2.7767,0 3.4186,0.6417 4.7007,1.71 1.2833,1.0683 1.9233,0.8541 2.1367,1.0683 0.2124,0.2142 0,0.8541 -0.4266,0.6399 -0.4266,-0.2142 -1.2833,-0.6399 -2.5633,-1.7086 -1.2833,-1.0696 -2.5633,-1.0683 -3.8463,-1.0683 -3.8463,0 -5.983,3.2046 -6.4094,2.9907 -0.4266,-0.2142 2.1367,-3.6325 6.4094,-3.6325 z"
       inkscape:connector-curvature="0"
       style="fill:#85340a" />
    <use
       xlink:href="#loweyecontour"
       transform="translate(-19.181,0)"
       id="use3266"
       x="0"
       y="0"
       width="744.09448"
       height="1052.3622" />
    <circle
       d="m 392.46301,246.14999 c 0,1.06205 -0.86096,1.923 -1.923,1.923 -1.06205,0 -1.923,-0.86095 -1.923,-1.923 0,-1.06204 0.86095,-1.923 1.923,-1.923 1.06204,0 1.923,0.86096 1.923,1.923 z"
       id="pupil"
       cy="246.14999"
       cx="390.54001"
       r="1.923"
       sodipodi:cx="390.54001"
       sodipodi:cy="246.14999"
       sodipodi:rx="1.923"
       sodipodi:ry="1.923"
       style="fill:#85340a"
       transform="translate(-1075.8609,107.40784)" />
    <path
       id="lowpalpebra"
       d="m -690.5709,354.84784 c 3.6327,2.7783 7.265,2.5644 9.4017,1.282 2.1367,-1.282 2.1367,-1.7086 1.71,-1.7086 -0.4266,0 -0.8532,0.4266 -2.5633,1.281 -1.71,0.8559 -4.273,0.8559 -8.546,-0.8541 z"
       inkscape:connector-curvature="0"
       style="fill:#85340a" />
    <rect
       style="fill:#74acdf;fill-opacity:1;stroke:#000000;stroke-opacity:1"
       id="rect3647"
       width="126.26907"
       height="150.51273"
       x="281.83255"
       y="470.51431" />
  </g>
</svg>
